<!-- Generated by IcoMoon.io -->
<svg version="1.1" xmlns="http://www.w3.org/2000/svg" width="32" height="32" viewBox="0 0 32 32">
<title>icone_right_arrow</title>
<path fill="#aeaeae" d="M24.416 17.418v0c-0.365 0.362-0.867 0.586-1.421 0.586s-1.057-0.224-1.422-0.586l-13.989-13.989c-0.362-0.365-0.586-0.867-0.586-1.421s0.224-1.057 0.586-1.422l-0 0c0.365-0.362 0.867-0.586 1.421-0.586s1.057 0.224 1.422 0.586l13.982 13.982c0.366 0.366 0.592 0.871 0.592 1.428 0 0.554-0.223 1.057-0.585 1.422l0-0z"></path>
<path fill="#aeaeae" d="M7.584 31.414v0c0.365 0.362 0.867 0.586 1.421 0.586s1.057-0.224 1.422-0.586l13.982-13.982c0.362-0.365 0.586-0.867 0.586-1.421s-0.224-1.057-0.586-1.422l0 0c-0.365-0.362-0.867-0.586-1.421-0.586s-1.057 0.224-1.422 0.586l-13.982 13.982c-0.362 0.365-0.586 0.867-0.586 1.421s0.224 1.057 0.586 1.422l-0-0z"></path>
</svg>
