<?xml version="1.0" encoding="utf-8"?>
<!-- Generator: Adobe Illustrator 21.1.0, SVG Export Plug-In . SVG Version: 6.00 Build 0)  -->
<svg version="1.1" id="Слой_1" xmlns="http://www.w3.org/2000/svg" xmlns:xlink="http://www.w3.org/1999/xlink" x="0px" y="0px"
	 viewBox="0 0 500 500" style="enable-background:new 0 0 500 500;" xml:space="preserve">
<style type="text/css">
	.st0{fill:#AEAEAE;}
</style>
<g>
	<g>
		<path class="st0" d="M139,267.9L139,267.9c11.1,11.1,29.3,11.1,40.4,0L378.2,69.1c11.1-11.1,11.1-29.3,0-40.4l0,0
			c-11.1-11.1-29.3-11.1-40.4,0L139,227.4C127.9,238.5,127.9,256.7,139,267.9z"/>
	</g>
	<g>
		<path class="st0" d="M378.2,466.8L378.2,466.8c-11.1,11.1-29.3,11.1-40.4,0L139,268.1c-11.1-11.1-11.1-29.3,0-40.4l0,0
			c11.1-11.1,29.3-11.1,40.4,0l198.7,198.7C389.3,437.5,389.3,455.7,378.2,466.8z"/>
	</g>
</g>
</svg>
